<?xml version="1.0" encoding="UTF-8"?>
<svg width="600px" height="600px" viewBox="0 0 600 600" version="1.1" xmlns="http://www.w3.org/2000/svg" xmlns:xlink="http://www.w3.org/1999/xlink">
    <title>assets/icon</title>
    <g id="/assets/icon" stroke="none" fill="none" fill-rule="nonzero">
        <path d="M447.43443,418.798237 C447.510893,426.677806 444.418975,434.256947 438.854949,439.828907 C433.290923,445.400867 425.722574,448.497193 417.854224,448.422091 C409.984437,448.499449 402.413925,445.404119 396.848083,439.83191 C391.282242,434.259702 388.189187,426.679267 388.265686,418.798237 L388.265686,181.210026 C388.189223,173.328244 391.282019,165.746981 396.847608,160.173456 C402.413196,154.599931 409.983664,151.502726 417.854224,151.577909 C425.724033,151.502689 433.293674,154.600154 438.857948,160.173932 C444.422223,165.747711 447.513145,173.329017 447.43443,181.210026 L447.43443,418.798237 L447.43443,418.798237 Z M329.092702,418.836702 C329.092702,435.403698 315.48547,448.422091 299.511763,448.422091 C291.64178,448.499348 284.071081,445.408038 278.505101,439.843064 C272.939121,434.278091 269.84599,426.7075 269.922491,418.836702 L269.922491,300.492686 C269.84599,292.621889 272.939121,285.051297 278.505101,279.486324 C284.071081,273.921351 291.64178,270.83004 299.511763,270.907298 C315.48547,270.907298 329.092702,283.925691 329.092702,300.492686 L329.092702,418.836702 L329.092702,418.836702 Z M211.7357,418.798311 C211.7357,435.386851 198.120154,448.422091 182.146469,448.422091 C174.277935,448.497275 166.709408,445.400948 161.145252,439.828987 C155.581095,434.257025 152.489106,426.677882 152.56557,418.798311 L152.56557,181.210034 C152.486853,173.329023 155.577848,165.747715 161.142252,160.173935 C166.706657,154.600155 174.276475,151.502689 182.146469,151.577909 C198.120154,151.577909 211.7357,164.61315 211.7357,181.210034 L211.7357,418.798311 L211.7357,418.798311 Z M461.346573,50 L138.653427,50 C89.5948128,50 50,89.65 50,138.166667 L50,461.833333 C50,510.358333 89.5948128,550 138.653427,550 L461.346573,550 C510.405187,550 550,510.358333 550,461.833333 L550,138.166667 C550,89.65 510.405187,50 461.346573,50" id="Shape" fill="#000000"></path>
    </g>
</svg>