<?xml version="1.0" encoding="UTF-8"?>
<svg width="600px" height="600px" viewBox="0 0 600 600" version="1.1" xmlns="http://www.w3.org/2000/svg" xmlns:xlink="http://www.w3.org/1999/xlink">
    <title>assets/icon</title>
    <g id="/assets/icon" stroke="none" fill="none" fill-rule="nonzero">
        <path d="M476.998239,442.472634 C477.089987,451.922462 473.379995,461.011992 466.70372,467.694346 C460.027445,474.376699 450.946183,478.090069 441.50495,478 C432.061993,478.092774 422.978136,474.3806 416.299682,467.697948 C409.621228,461.015296 405.909872,451.924215 406.001663,442.472634 L406.001663,157.537276 C405.909916,148.084793 409.620961,138.992718 416.299111,132.308488 C422.977261,125.624258 432.061066,121.909834 441.50495,122 C450.947934,121.90979 460.030746,125.624525 466.707319,132.309059 C473.383892,138.993593 477.09269,148.085721 476.998239,157.537276 L476.998239,442.472634 L476.998239,442.472634 Z M335,442.500493 C335,462.379231 318.672682,478 299.505831,478 C290.062639,478.092702 280.978557,474.383438 274.299937,467.706026 C267.621318,461.028615 263.90987,451.944662 264.001663,442.500493 L264.001663,300.499507 C263.90987,291.055338 267.621318,281.971385 274.299937,275.293974 C280.978557,268.616562 290.062639,264.907298 299.505831,265 C318.672682,265 335,280.620769 335,300.499507 L335,442.500493 L335,442.500493 Z M194,442.472723 C194,462.367066 177.662706,478 158.495881,478 C149.054427,478.090168 139.972952,474.376797 133.296521,467.694442 C126.62009,461.012087 122.910011,451.922554 123.001761,442.472723 L123.001761,157.537286 C122.907308,148.085728 126.616193,138.993598 133.292922,132.309062 C139.969651,125.624526 149.052676,121.90979 158.495881,122 C177.662706,122 194,137.632935 194,157.537286 L194,442.472723 L194,442.472723 Z M493.615888,0 L106.384112,0 C47.5137754,0 0,47.58 0,105.8 L0,494.2 C0,552.43 47.5137754,600 106.384112,600 L493.615888,600 C552.486225,600 600,552.43 600,494.2 L600,105.8 C600,47.58 552.486225,0 493.615888,0" id="Shape" fill="#000000"></path>
    </g>
</svg>