<?xml version="1.0" encoding="UTF-8"?>
<svg width="960px" height="960px" viewBox="0 0 960 960" version="1.1" xmlns="http://www.w3.org/2000/svg" xmlns:xlink="http://www.w3.org/1999/xlink">
    <title>whatwatt-GO</title>
    <g id="whatwatt-GO" stroke="none" fill="none" fill-rule="nonzero">
        <path d="M816,1 C853.24894,1 879.910661,24.1026582 887.933028,60.7801901 L888.069,61.421 L888.532905,63.4640601 C898.10565,106.017893 904.500744,150.781014 907.735939,197.743234 L907.912421,200.354508 L908.15644,204.13993 C910.746484,245.455795 912.04548,303.504299 912.078368,378.507896 L912.078368,383.807865 C912.078368,392.687696 912.054754,401.800297 912.01693,411.146023 C911.969806,422.365307 908.15358,433.180028 901.277115,441.898749 L900.999,442.246 L901,447.097755 C900.999619,449.601206 900.807514,452.088624 900.430504,454.539634 L900.418,454.614 C902.862912,458.74187 904.586902,463.341736 905.426794,468.252396 L905.510519,468.761497 L908.510519,487.761497 C908.836339,489.825025 909,491.910908 909,494 L909,529 C909,531.918494 908.680593,534.828222 908.047482,537.677218 L904.047482,555.677218 C901.976133,564.998293 896.638761,573.270929 889,579 L853,606 C843.658404,613.006197 831.721714,615.580578 820.322782,613.047482 L794,607.198 L794,795.353481 C794,815.820083 784.361514,835.078383 768.009399,847.34644 L767.511828,847.716054 L633.134623,946.548321 C617.334759,958.168866 597.33617,962.51644 578.137852,958.504292 L109.043932,860.470992 C72.8964183,852.916727 47,821.048899 47,784.120459 L47,384.109774 C47,362.55635 57.2181099,342.279124 74.5415033,329.455314 L205.105682,232.803909 C222.101186,220.222821 243.716994,215.629347 264.3599,220.212072 L721.307,321.654 L721.423461,312.302932 C722.026325,267.382768 723.212639,230.608645 724.989813,201.912732 L725.079693,200.476302 C728.181138,151.417066 734.442844,104.802147 743.887903,60.6188365 C751.75959,23.8843013 778.730373,1 816,1 Z M101,368.457163 C94.6442998,368.457163 89.2777849,372.69237 87.5686877,378.49455 C87.2013767,380.287766 87.007961,382.128791 87,383.99353 L87,784.120459 C87,802.111237 99.6162038,817.636589 117.226531,821.316873 L566.94,915.3 L566.961161,915.194193 L590.559101,919.914108 C592.541537,920.03013 594.522194,919.941588 596.470524,919.655123 C601.405848,918.166144 605,913.584959 605,908.164314 L605,493.330726 C605,480.99631 596.333645,470.359384 584.253659,467.867045 L103.828893,368.74595 C102.898174,368.553925 101.950322,368.457163 101,368.457163 Z M228.904798,264.953591 L113.566,350.333 L588.294935,448.279598 C609.667219,452.689121 625,471.508298 625,493.330726 L625,902.877 L743.812242,815.492932 C750.217621,810.781879 754,803.304764 754,795.353481 L754,567.797877 L753.868985,567.770319 L714.098971,558.538109 C714.35754,559.296059 714.5,560.121007 714.5,561 L714.5,564.638 L714.577816,564.622596 C717.885072,563.977247 721.278063,565.692481 722.746766,568.692567 L722.803,568.813 L722.968383,568.764195 C727.421415,567.497039 732.348292,570.686708 732.496569,575.764318 L732.5,576 L732.5,621 C732.5,623.507649 731.246741,625.849384 729.160251,627.240377 L723.5,631.013 L723.5,641 C723.5,643.414773 722.337856,645.675694 720.388633,647.08195 L720.160251,647.240377 L714.5,651.013 L714.5,663 C714.5,665.228013 713.509803,667.335306 711.807131,668.756879 L711.581026,668.938367 L676.581026,695.938367 C671.650333,699.742045 664.5,696.227335 664.5,690 L664.5,588 C664.5,585.675117 665.578173,583.481679 667.418974,582.061633 L701.655,555.649 L697.738703,554.740972 C694.4164,553.969723 691.716277,551.558388 690.575723,548.344098 L690.058192,546.886686 L677.037941,544.463139 L676.146888,544.291976 C658.370363,540.836569 652.886005,514.594817 658.474199,485.846052 C664.062393,457.097286 678.977734,434.820834 696.754259,438.27624 C702.204503,439.33566 707.902652,440.397559 713.848474,441.461849 L716.836917,439.12495 C719.133837,437.327361 722.101097,436.62218 724.961161,437.194193 L740.127,440.227 L740.690621,392.987807 C740.870891,377.845162 730.411845,364.64943 715.628048,361.367427 L255.690951,259.261391 C246.359226,257.189748 236.587697,259.26625 228.904798,264.953591 Z M671.873706,772.42114 C683.56909,774.694492 687.671389,793.345542 683.669289,813.934562 C679.667189,834.523581 668.876797,850.279785 657.181413,848.006433 C645.486029,845.733081 641.383729,827.082031 645.385829,806.493011 C649.387929,785.903992 660.178321,770.147788 671.873706,772.42114 Z M663.108123,787.829725 C659.675576,792.841953 656.796693,800.197635 655.202101,808.401101 C653.607509,816.604567 653.521275,824.503085 654.826264,830.436197 C655.906252,835.346351 657.683572,837.916876 659.089503,838.190161 C660.495434,838.463447 663.106271,836.745893 665.946996,832.597848 C669.379543,827.58562 672.258425,820.229938 673.853017,812.026472 C675.44761,803.823006 675.533843,795.924488 674.228855,789.991376 C673.148866,785.081222 671.371547,782.510697 669.965616,782.237412 C668.559684,781.964126 665.948847,783.68168 663.108123,787.829725 Z M660.350403,755.433936 C661.08807,751.638972 663.444024,748.904258 665.612575,749.325781 C667.781126,749.747305 668.941087,753.165444 668.203421,756.960408 C667.465755,760.755372 665.1098,763.490086 662.941249,763.068562 C660.772698,762.647038 659.612737,759.2289 660.350403,755.433936 Z M702.000006,583.596077 L702,615 L695,621 L695,634 L685,642 L685,657 L679.499,661.207 L679.5,674.741 L699.5,659.312 L699.5,647 C699.5,644.585227 700.662144,642.324306 702.611367,640.91805 L702.839749,640.759623 L708.5,636.985 L708.5,627 C708.5,624.585227 709.662144,622.324306 711.611367,620.91805 L711.839749,620.759623 L717.5,616.985 L717.5,590.365 L717.412531,590.383029 C713.824065,591.072012 710.087488,588.984507 708.89205,585.435785 L708.842,585.281 L708.637733,585.331959 C706.32827,585.855372 703.955515,585.213006 702.206811,583.772718 L702.000006,583.596077 Z M774.899923,500.441685 L774.889734,500.561264 L774.656606,502.922078 C773.654428,513.247491 773.104797,521.343826 773.005439,527.162989 L772.999072,527.577382 C772.891548,535.470931 773.53775,546.976144 774.949033,561.98888 L819.648884,571.922513 L819.896369,567.467733 C820.601254,554.404109 820.968063,544.048007 820.998004,536.428312 L820.999273,534.831314 L820.98535,532.685673 C820.914503,525.858244 820.586637,517.611663 820.000588,507.958546 C818.842226,507.986127 817.674926,508 816.5,508 C803.544043,508 791.301006,506.312667 781.935642,503.261031 C779.372,502.425687 777.019984,501.488995 774.899923,500.441685 Z M868.417597,490.307772 C867.191157,492.807403 865.301432,495.027358 862.924426,496.938102 C859.745468,499.493492 855.605045,501.566403 850.653676,503.231462 C847.406747,504.323347 843.798951,505.240294 839.916872,505.969136 L840.044051,508.077329 C840.660135,518.513844 840.979068,527.383912 840.999003,534.701941 L840.997656,536.552219 C840.967181,543.97382 840.639602,553.694641 840.015888,565.737804 L865,547 L869,529 L869,494 L868.417597,490.307772 Z M725.545,457.706 L708.975,470.674 L699.389,513.375 L707.594,536.497 L753.679385,547.194642 L753.567776,545.455718 C753.123132,538.299247 752.933495,532.255304 753.000928,527.304971 L753.016776,526.371038 C753.192634,517.668597 754.209436,505.076624 756.061696,488.479133 C756.329715,486.077499 757.458335,483.854159 759.238829,482.220293 L762.000233,479.686 L762.000233,464.950613 C761.680849,464.918141 761.360103,464.87006 761.038839,464.805807 L725.545,457.706 Z M692.116717,458.847437 C690.835884,459.885199 689.360294,461.563033 687.855428,463.810589 C683.695978,470.022836 680.122729,479.29088 678.106742,489.662231 C676.090756,500.033583 675.931945,509.965326 677.461371,517.283379 C678.106931,520.372281 679.006037,522.727266 679.952993,524.140238 C680.09541,524.352741 680.221916,524.519324 680.327572,524.643878 L680.419838,524.746544 L682.329439,525.108352 L679.575723,517.344098 C678.945325,515.567524 678.829927,513.648944 679.242837,511.809617 L690.242837,462.809617 C690.56899,461.356757 691.212886,460.005552 692.116717,458.847437 Z M782,468.402864 L782,481.51 L782.155347,481.613733 C783.3799,482.41112 785.278503,483.287158 787.719944,484.108674 L788.131855,484.245066 C795.34951,486.596886 805.530296,488 816.5,488 C827.422389,488 837.336861,486.609096 844.278827,484.274635 C846.775762,483.434959 848.688767,482.533176 849.88275,481.725137 L850,481.643 L850.000717,468.900052 C841.317451,470.988283 830.334913,472 817,472 C803.497902,472 791.83556,470.812222 782,468.402864 Z M861,438.750177 C847.657858,442.258479 832.985601,444 817,444 C800.181933,444 784.846869,442.410234 770.998692,439.204893 L771,445.856445 C771.000012,447.482121 771.330269,449.084965 771.964394,450.569689 C772.052806,450.745797 772.135208,450.925325 772.212308,451.10733 C772.362206,451.420367 772.528187,451.726885 772.707785,452.026468 L773.033406,452.559307 C773.400422,453.149559 773.722429,453.629905 774,454 C774.503681,454.671575 775.153678,455.370292 775.94999,456.096152 C786.2032,460.003942 799.896815,462 817,462 L818.675028,461.994314 C835.003695,461.882546 847.128869,460.124863 854.921708,456.878483 L855.311,456.713 L855.320465,456.705985 C856.472016,455.642602 857.365194,454.740607 858,454 C858.326645,453.618914 858.7217,453.120936 859.185165,452.506066 C860.36334,450.94693 861,449.0459 861,447.091675 L861,438.750177 Z M816,41 C798,41 787,50.3333333 783,69 C773.980019,111.194844 767.980019,155.861511 765,203 L764.826925,205.794704 C762.116525,250.472253 760.829215,315.483183 760.964995,400.827494 L760.989799,411.743742 C760.993665,413.00823 761.237109,414.250854 761.697847,415.409188 L761.841,415.752 L762.220697,415.887508 C777.554705,421.272857 795.811016,424 817,424 C838.139736,424 856.295314,420.653611 871.522255,414.043675 C871.843095,413.062135 872.012868,412.028949 872.017283,410.978015 L872.040095,404.839643 C872.060631,398.735739 872.074024,392.735243 872.07829,386.838155 L872.07829,378.64979 L872.068041,369.548163 C871.936472,298.178289 870.60723,243.069359 868.080199,204.221373 L868,203 C864.903028,156.276118 858.569695,111.942785 849,70 C845,50.6666667 834,41 816,41 Z M402.358509,317.379687 L515.878195,340.665776 C517.278833,340.953086 518.530831,341.731132 519.408644,342.859749 C521.443064,345.475432 520.971857,349.245085 518.356174,351.279506 L512.160569,356.09831 C510.314481,357.534156 507.932525,358.090269 505.641491,357.620313 L392.121805,334.334224 C390.721167,334.046914 389.469169,333.268868 388.591356,332.140251 C386.556936,329.524568 387.028143,325.754915 389.643826,323.720494 L395.839431,318.90169 C397.685519,317.465844 400.067475,316.909731 402.358509,317.379687 Z M425.177318,303.567346 L532.603139,326.587165 C534.051563,326.897542 535.338894,327.721218 536.227677,328.906262 C538.261759,331.618371 537.712109,335.465918 535,337.5 C532.577315,339.317014 529.48909,340.001813 526.525428,339.379195 L415.442767,316.042501 C413.017619,315.533016 411.142334,313.605981 410.69904,311.167864 C410.096862,307.855883 412.293591,304.682829 415.605573,304.08065 L418.962685,303.470266 C421.02066,303.096089 423.132034,303.129071 425.177318,303.567346 Z" id="Shape" fill="#000000"></path>
    </g>
</svg>